# xmcd CD database file
#
# Track frame offsets:
#	183
#	16088
#	44515
#	69570
#	89095
#	125828
#	151890
#	169655
#	191513
#	219593
#	250138
#	296390
#
# Disc length: 4303 seconds
#
# Revision: 2
# Processed by: cddbd v1.5.1PL2 Copyright (c) Steve Scherf et al.
# Submitted via: CDex 1.51
#
DISCID=aa10cd0c
DTITLE=Notty's Jug Serenaders - United our thing will stand
DYEAR=1992
DGENRE=Jazz
TTITLE0=Guitar rag
TTITLE1=John Henry
TTITLE2=Sloppy drunk blues
TTITLE3=Fishing blues
TTITLE4=Got my mojo working
TTITLE5=Just as well get ready, you got to die
TTITLE6=What's the matter blues
TTITLE7=Honky tonk women
TTITLE8=Crow black chicken, Mississippi river walz
TTITLE9=I'm gonna leave this town
TTITLE10=United our thing will stand
TTITLE11=Irene Goodnight
EXTD=YEAR: 1992
EXTT0=
EXTT1=
EXTT2=
EXTT3=
EXTT4=
EXTT5=
EXTT6=
EXTT7=
EXTT8=
EXTT9=
EXTT10=
EXTT11=
PLAYORDER=
